<?xml version="1.0" standalone="no"?>
<!DOCTYPE svg PUBLIC "-//W3C//DTD SVG 20010904//EN"
 "http://www.w3.org/TR/2001/REC-SVG-20010904/DTD/svg10.dtd">
<svg version="1.0" xmlns="http://www.w3.org/2000/svg"
 width="1120.000000pt" height="1603.000000pt" viewBox="0 0 1120.000000 1603.000000"
 preserveAspectRatio="xMidYMid meet">

<g transform="translate(0.000000,1603.000000) scale(0.100000,-0.100000)"
fill="#000000" stroke="none">
<path d="M836 16000 c-3 -8 -192 -710 -419 -1560 l-414 -1545 189 -3 188 -2 0
-3808 c0 -2420 4 -3867 10 -3972 75 -1241 535 -2360 1351 -3285 110 -125 375
-389 494 -492 765 -662 1673 -1092 2660 -1257 588 -99 1202 -99 1790 0 987
165 1895 595 2660 1257 119 103 384 367 494 492 679 770 1117 1687 1285 2690
99 588 99 1202 0 1790 -190 1131 -719 2148 -1540 2956 -401 396 -786 676
-1304 952 -816 434 -1846 654 -2790 597 -955 -58 -1820 -337 -2615 -843 -569
-363 -1102 -871 -1494 -1424 -40 -57 -75 -103 -77 -103 -2 0 -4 1001 -4 2225
l0 2225 188 2 c181 3 187 4 184 23 -4 20 -819 3070 -826 3090 -2 6 -6 3 -10
-5z m5242 -6110 c620 -45 1193 -200 1730 -469 644 -323 1222 -821 1649 -1421
369 -519 634 -1147 747 -1775 205 -1136 -19 -2277 -639 -3245 -297 -464 -721
-907 -1185 -1237 -519 -369 -1147 -634 -1775 -747 -1136 -205 -2277 19 -3245
639 -464 297 -907 721 -1237 1185 -369 519 -634 1147 -747 1775 -205 1136 19
2277 639 3245 297 464 721 907 1185 1237 519 369 1147 633 1775 747 372 68
756 90 1103 66z"/>
</g>
</svg>
